<svg id="レイヤー_1" data-name="レイヤー 1" xmlns="http://www.w3.org/2000/svg" viewBox="0 0 136 91"><title>アートボード 1</title><path d="M91.4,59.76c-8.05,0-11.27-11.69-14.68-24.07-2.49-9-5.59-20.31-9.74-20.31s-7.25,11.26-9.74,20.31c-3.4,12.38-6.62,24.07-14.67,24.07S31.31,48.06,27.9,35.69c-2.49-9-5.59-20.31-9.74-20.31a2.56,2.56,0,1,1,0-5.12c8.05,0,11.27,11.69,14.67,24.07,2.49,9,5.59,20.31,9.74,20.31s7.25-11.26,9.74-20.31C55.71,21.95,58.93,10.26,67,10.26S78.25,21.95,81.66,34.33c2.49,9,5.59,20.31,9.74,20.31s7.25-11.26,9.74-20.31c3.41-12.38,6.62-24.07,14.68-24.07a2.56,2.56,0,1,1,0,5.12c-4.16,0-7.25,11.26-9.74,20.31C102.67,48.06,99.46,59.76,91.4,59.76Z" style="fill:#00addf"/><path d="M19,69.79l2.68,6.88,2.8-7.38,2.68,7.38L30,69.79H31.7L27.1,80.73l-2.65-7.29-2.76,7.3L17.33,69.79Z" style="fill:#9e9e9f"/><path d="M34.73,69.79V80.08H33.18V69.79Z" style="fill:#9e9e9f"/><path d="M41.71,75.69l3.18,4.38H43l-2.94-4.21h-.28v4.21H38.23V69.79H40a4.54,4.54,0,0,1,2.94.77,2.82,2.82,0,0,1,1,2.25,2.92,2.92,0,0,1-.63,1.88A2.79,2.79,0,0,1,41.71,75.69Zm-1.93-1.18h.49q2.21,0,2.21-1.69t-2.15-1.58h-.55Z" style="fill:#9e9e9f"/><path d="M53.14,71.25H49v2.47h4v1.46H49v3.44h4.12v1.46H47.47V69.79h5.68Z" style="fill:#9e9e9f"/><path d="M66.58,71.25H63v2.47h3.46v1.46H63v4.9H61.44V69.79h5.14Z" style="fill:#9e9e9f"/><path d="M72.88,75.69l3.19,4.38h-1.9l-2.94-4.21H71v4.21H69.4V69.79h1.82a4.54,4.54,0,0,1,2.94.77,2.82,2.82,0,0,1,1,2.25,2.92,2.92,0,0,1-.63,1.88A2.79,2.79,0,0,1,72.88,75.69ZM71,74.52h.49q2.21,0,2.21-1.69t-2.15-1.58H71Z" style="fill:#9e9e9f"/><path d="M84.68,77.58h-4.4l-1.15,2.5H77.46l5.09-10.93,4.91,10.93h-1.7ZM84,76.12l-1.53-3.5-1.6,3.5Z" style="fill:#9e9e9f"/><path d="M89.41,80.08,91.58,69l3.53,8,3.66-8,1.95,11.06H99.12l-1-6.21-3,6.68-3-6.69L91,80.08Z" style="fill:#9e9e9f"/><path d="M109.59,71.25h-4.12v2.47h4v1.46h-4v3.44h4.13v1.46h-5.68V69.79h5.68Z" style="fill:#9e9e9f"/><path d="M118.47,71.32l-1.26.75a2.18,2.18,0,0,0-.67-.8,1.57,1.57,0,0,0-.86-.21,1.59,1.59,0,0,0-1.07.37,1.13,1.13,0,0,0-.43.91q0,.75,1.12,1.21l1,.42a4.38,4.38,0,0,1,1.83,1.24,2.78,2.78,0,0,1,.58,1.79,3.14,3.14,0,0,1-.95,2.34,3.25,3.25,0,0,1-2.37.93,3.16,3.16,0,0,1-2.21-.79,3.65,3.65,0,0,1-1.07-2.23l1.57-.35a2.66,2.66,0,0,0,.37,1.25,1.77,1.77,0,0,0,2.6.18,1.68,1.68,0,0,0,.48-1.23,1.73,1.73,0,0,0-.08-.55,1.39,1.39,0,0,0-.26-.46,2.09,2.09,0,0,0-.46-.39,4.42,4.42,0,0,0-.67-.35l-1-.41q-2.11-.89-2.11-2.61a2.48,2.48,0,0,1,.89-1.94,3.2,3.2,0,0,1,2.21-.79A3.08,3.08,0,0,1,118.47,71.32Z" style="fill:#9e9e9f"/></svg>